# xmcd
#
# Track frame offsets:
#   150
#   7980
#   20770
#   35420
#   44208
#   55338
#   67830
#   79893
#   92610
#   110798
#
# Disc length: 1627 seconds
#
# Revision: 0
# Processed by: cddbd v1.5.2PL0 Copyright (c) Steve Scherf et al.
# Submitted via: uFREEDB ActiveX Control 1.5
#
DISCID=8206590a
DTITLE=Sylvia Telles - Os Grandes da MPB V041
DYEAR=1998
DGENRE=Latin
TTITLE0=Se é Tarde me Perdoa
TTITLE1=Dindi
TTITLE2=Manhã de Carnaval
TTITLE3=Samba Torto
TTITLE4=Tetê
TTITLE5=Rio
TTITLE6=Balanço Zona Sul
TTITLE7=Você
TTITLE8=Insensatez
TTITLE9=Estrada do Sol
EXTD=
EXTT0=
EXTT1=
EXTT2=
EXTT3=
EXTT4=
EXTT5=
EXTT6=
EXTT7=
EXTT8=
EXTT9=
PLAYORDER=
